# File created by Blade
# Date/Time:  Wed Jan 28 16:58:26 2015
#---------------------------------------------------------
:version 1.10
:name HOM
:units
  mass 1.0
  length 1.000000
  angle deg
:documentation
     Acclaim Skeleton File
:root
   axis xyz
   order TX TY TZ RX RY RZ
   position 0.000000 0.000000 0.000000
   orientation 0 0 0
:bonedata
   begin
      id 1
      name Spine_dum
      direction 0.000000 1.000000 0.000000
      length 9.621153
      axis 0.0 0.0 0.0 xyz
   end
   begin
      id 2
      name LeftUpLeg_dum
      direction 1.000000 0.000000 0.000000
      length 2.700595
      axis 0.0 0.0 0.0 xyz
   end
   begin
      id 3
      name RightUpLeg_dum
      direction -1.000000 0.000000 0.000000
      length 2.700595
      axis 0.0 0.0 0.0 xyz
   end
   begin
      id 4
      name Spine
      direction 0.000000 1.000000 0.000000
      length 0.000000
      axis 0.0 0.0 0.0 xyz
      dof rx ry rz
   end
   begin
      id 5
      name Spine_dum1
      direction 0.000000 1.000000 0.000000
      length 12.771951
      axis 0.0 0.0 0.0 xyz
   end
   begin
      id 6
      name Spine_dum2
      direction 0.000000 1.000000 0.000000
      length 7.400569
      axis 0.0 0.0 0.0 xyz
   end
   begin
      id 7
      name Spine_dum3
      direction 0.000000 1.000000 0.000000
      length 7.400569
      axis 0.0 0.0 0.0 xyz
   end
   begin
      id 8
      name Head
      direction 0.000000 1.000000 0.000000
      length 4.527550
      axis 0.0 0.0 0.0 xyz
      dof rx ry rz
   end
   begin
      id 9
      name LeftShoulder
      direction 1.000000 0.000000 0.000000
      length 8.349299
      axis 0.0 0.0 -90.0 xyz
      dof rx ry rz
   end
   begin
      id 10
      name LeftArm
      direction 1.000000 0.000000 0.000000
      length 11.334839
      axis 0.0 0.0 -90.0 xyz
      dof rx ry rz
   end
   begin
      id 11
      name LeftForeArm
      direction 1.000000 0.000000 0.000000
      length 9.694182
      axis 0.0 0.0 -90.0 xyz
      dof ry rz rx
   end
   begin
      id 12
      name LeftHand
      direction 0.000000 0.000000 0.000000
      length 0.000000
      axis 0.0 0.0 -90.0 xyz
      dof rx ry rz
   end
   begin
      id 13
      name LeftHand_dum1
      direction 0.000000 0.000000 0.000000
      length 0.000000
      axis 0.0 0.0 -90.0 xyz
   end
   begin
      id 14
      name LeftHand_dum2
      direction 1.000000 0.000000 0.000000
      length 3.937000
      axis 0.0 0.0 -90.0 xyz
   end
   begin
      id 15
      name LeftHandThumb1
      direction 0.000000 0.000000 1.000000
      length 3.937000
      axis 0.0 0.0 -90.0 xyz
      dof rx rz ry
   end
   begin
      id 16
      name RightShoulder
      direction -1.000000 0.000000 0.000000
      length 8.349299
      axis 0.0 0.0 90.0 xyz
      dof rx ry rz
   end
   begin
      id 17
      name RightArm
      direction -1.000000 0.000000 0.000000
      length 11.334839
      axis 0.0 0.0 90.0 xyz
      dof rx ry rz
   end
   begin
      id 18
      name RightForeArm
      direction -1.000000 0.000000 0.000000
      length 9.694182
      axis 0.0 0.0 90.0 xyz
      dof ry rz rx
   end
   begin
      id 19
      name RightHand
      direction 0.000000 0.000000 0.000000
      length 0.000000
      axis 0.0 0.0 90.0 xyz
      dof rx ry rz
   end
   begin
      id 20
      name RightHand_dum1
      direction 0.000000 0.000000 0.000000
      length 0.000000
      axis 0.0 0.0 90.0 xyz
   end
   begin
      id 21
      name RightHand_dum2
      direction -1.000000 0.000000 0.000000
      length 3.937000
      axis 0.0 0.0 90.0 xyz
   end
   begin
      id 22
      name RightHandThumb1
      direction 0.000000 0.000000 1.000000
      length 3.937000
      axis 0.0 0.0 90.0 xyz
      dof rx rz ry
   end
   begin
      id 23
      name LeftUpLeg
      direction 0.000000 -1.000000 0.000000
      length 16.757176
      axis 0.0 0.0 0.0 xyz
      dof rx ry rz
   end
   begin
      id 24
      name LeftLeg
      direction 0.000000 -1.000000 0.000000
      length 16.759153
      axis 0.0 0.0 0.0 xyz
      dof rx ry rz
   end
   begin
      id 25
      name LeftFoot
      direction 0.000000 -0.258819 0.965926
      length 5.841289
      axis 15.0 0.0 0.0 xyz
      dof rx ry rz
   end
   begin
      id 26
      name LeftToeBase
      direction 0.000000 0.000000 1.000000
      length 2.952750
      axis 0.0 0.0 0.0 xyz
      dof rx ry rz
   end
   begin
      id 27
      name RightUpLeg
      direction 0.000000 -1.000000 0.000000
      length 16.757176
      axis 0.0 0.0 0.0 xyz
      dof rx ry rz
   end
   begin
      id 28
      name RightLeg
      direction 0.000000 -1.000000 0.000000
      length 16.759153
      axis 0.0 0.0 0.0 xyz
      dof rx ry rz
   end
   begin
      id 29
      name RightFoot
      direction 0.000000 -0.258819 0.965926
      length 5.841289
      axis 15.0 0.0 0.0 xyz
      dof rx ry rz
   end
   begin
      id 30
      name RightToeBase
      direction 0.000000 0.000000 1.000000
      length 2.952750
      axis 0.0 0.0 0.0 xyz
      dof rx ry rz
   end
:hierarchy
   begin
      root Spine_dum LeftUpLeg_dum RightUpLeg_dum
      Spine_dum Spine
      LeftUpLeg_dum LeftUpLeg
      RightUpLeg_dum RightUpLeg
      Spine Spine_dum1 Spine_dum2 Spine_dum3
      Spine_dum1 Head
      Spine_dum2 LeftShoulder
      Spine_dum3 RightShoulder
      LeftShoulder LeftArm
      LeftArm LeftForeArm
      LeftForeArm LeftHand
      LeftHand LeftHand_dum1 LeftHand_dum2
      LeftHand_dum1 LeftHandThumb1
      RightShoulder RightArm
      RightArm RightForeArm
      RightForeArm RightHand
      RightHand RightHand_dum1 RightHand_dum2
      RightHand_dum1 RightHandThumb1
      LeftUpLeg LeftLeg
      LeftLeg LeftFoot
      LeftFoot LeftToeBase
      RightUpLeg RightLeg
      RightLeg RightFoot
      RightFoot RightToeBase
   end

# File created by Blade
# Date/Time:  Wed Jan 28 16:58:32 2015
# Frame Rate: 120.000 fps
#------------------------------------------------------
:FULLY-SPECIFIED
:DEGREES
135
root 16.028784 35.069210 -13.658871 173.210254 2.621267 -179.569805
Spine 21.150435 4.508115 0.601059
Head 22.268681 20.637647 17.070821
LeftShoulder -8.772786 6.893638 26.113556
LeftArm 24.840904 -39.359387 -53.302881
LeftForeArm -29.562348 -0.000000 16.762081
LeftHand 7.371043 0.000000 24.257359
LeftHandThumb1 -26.253704 0.000000 33.147579
RightShoulder -24.437077 -5.322715 -24.573616
RightArm 30.390507 23.840482 46.443451
RightForeArm -10.086522 -0.000000 4.510687
RightHand -15.395451 -0.000000 13.637162
RightHandThumb1 -24.326973 -0.000000 -32.862282
LeftUpLeg 5.824116 19.477591 9.714582
LeftLeg 12.324327 -0.000000 -0.000000
LeftFoot -16.926532 6.835497 -11.428151
LeftToeBase 14.751506 -0.000000 -0.000000
RightUpLeg 7.956037 -12.162620 -3.612095
RightLeg 4.907346 -0.000000 -0.000000
RightFoot -13.234905 -16.394141 8.372847
RightToeBase 6.275083 -0.000000 -0.000000
136
root 16.089607 35.076080 -13.647530 173.207790 2.447342 -179.638238
Spine 21.226083 4.507133 0.516074
Head 22.366824 20.631703 17.111896
LeftShoulder -8.682886 6.792606 26.170538
LeftArm 24.955457 -38.894015 -53.152496
LeftForeArm -29.990468 0.000000 16.693883
LeftHand 7.511854 -0.000000 24.205410
LeftHandThumb1 -26.253704 0.000000 33.147579
RightShoulder -24.422069 -5.408048 -24.492048
RightArm 30.503029 23.864029 46.578538
RightForeArm -10.047881 -0.000000 4.524078
RightHand -15.382252 -0.000000 13.557995
RightHandThumb1 -24.326973 -0.000000 -32.862282
LeftUpLeg 5.447435 19.668470 9.686314
LeftLeg 12.841293 -0.000000 -0.000000
LeftFoot -16.873448 6.996164 -11.473220
LeftToeBase 14.615897 -0.000000 -0.000000
RightUpLeg 7.975479 -12.325143 -3.600726
RightLeg 4.895640 -0.000000 -0.000000
RightFoot -13.248110 -16.414510 8.307851
RightToeBase 6.220606 -0.000000 -0.000000
137
root 16.140316 35.083614 -13.636824 173.202767 2.265909 -179.734345
Spine 21.308562 4.508383 0.420913
Head 22.451100 20.620806 17.154025
LeftShoulder -8.562862 6.617647 26.255289
LeftArm 25.027910 -38.506180 -53.058914
LeftForeArm -30.427462 -0.000000 16.652454
LeftHand 7.381507 0.000000 24.243033
LeftHandThumb1 -26.253704 0.000000 33.147579
RightShoulder -24.409139 -5.397858 -24.429856
RightArm 30.545945 23.847852 46.674557
RightForeArm -10.051232 -0.000000 4.602178
RightHand -15.278215 -0.000000 13.391625
RightHandThumb1 -24.326973 -0.000000 -32.862282
LeftUpLeg 5.034943 19.735528 9.567425
LeftLeg 13.397303 -0.000000 -0.000000
LeftFoot -16.861186 7.399291 -11.507081
LeftToeBase 14.562680 -0.000000 -0.000000
RightUpLeg 7.986042 -12.545033 -3.644158
RightLeg 4.903227 -0.000000 -0.000000
RightFoot -13.252033 -16.372672 8.255015
RightToeBase 6.206431 -0.000000 -0.000000
138
root 16.189136 35.091389 -13.613079 173.242734 2.157915 -179.855716
Spine 21.366776 4.557035 0.281104
Head 22.521144 20.663724 17.204763
LeftShoulder -8.491667 6.564517 26.319176
LeftArm 25.332549 -38.359686 -53.169850
LeftForeArm -30.649215 -0.000000 16.554607
LeftHand 7.444224 -0.000000 24.110060
LeftHandThumb1 -26.253704 0.000000 33.147579
RightShoulder -24.346582 -5.348002 -24.357597
RightArm 30.538662 23.776897 46.721737
RightForeArm -9.980163 -0.000000 4.681409
RightHand -15.383464 -0.000000 13.150864
RightHandThumb1 -24.326973 -0.000000 -32.862282
LeftUpLeg 4.562552 19.930091 9.408201
LeftLeg 13.958001 -0.000000 -0.000000
LeftFoot -16.826231 7.866761 -11.517044
LeftToeBase 14.212341 -0.000000 -0.000000
RightUpLeg 7.894208 -12.646789 -3.682544
RightLeg 4.957162 -0.000000 -0.000000
RightFoot -13.270752 -16.383244 8.188319
RightToeBase 6.190218 -0.000000 -0.000000
139
root 16.239659 35.099667 -13.596679 173.259029 1.980209 -179.970061
Spine 21.432099 4.549339 0.133216
Head 22.597367 20.728311 17.232308
LeftShoulder -8.377948 6.419037 26.423156
LeftArm 25.489664 -38.181305 -53.197585
LeftForeArm -30.827792 0.000000 16.462080
LeftHand 7.387579 0.000000 23.905000
LeftHandThumb1 -26.253704 0.000000 33.147579
RightShoulder -24.348072 -5.298640 -24.263406
RightArm 30.621794 23.513880 46.688973
RightForeArm -9.742431 0.000000 4.708453
RightHand -15.450298 -0.000000 13.143574
RightHandThumb1 -24.326973 -0.000000 -32.862282
LeftUpLeg 4.088424 20.056298 9.257675
LeftLeg 14.561154 -0.000000 -0.000000
LeftFoot -16.798302 8.315459 -11.548755
LeftToeBase 13.699911 -0.000000 -0.000000
RightUpLeg 7.864568 -12.851068 -3.734540
RightLeg 4.981215 -0.000000 -0.000000
RightFoot -13.271824 -16.359977 8.127705
RightToeBase 6.138262 -0.000000 -0.000000
140
root 16.284074 35.107692 -13.579183 173.286983 1.826879 -180.093410
Spine 21.489699 4.532874 -0.005629
Head 22.678186 20.810367 17.275947
LeftShoulder -8.313302 6.304515 26.498900
LeftArm 25.746617 -38.117422 -53.365691
LeftForeArm -30.722800 -0.000000 16.358930
LeftHand 7.357443 0.000000 23.679860
LeftHandThumb1 -26.253704 0.000000 33.147579
RightShoulder -24.269677 -5.330184 -24.198995
RightArm 30.666403 23.515756 46.811101
RightForeArm -9.898052 -0.000000 4.802380
RightHand -15.055339 -0.000000 13.208273
RightHandThumb1 -24.326973 -0.000000 -32.862282
LeftUpLeg 3.588190 20.192755 9.058151
LeftLeg 15.168377 -0.000000 -0.000000
LeftFoot -16.769280 8.918557 -11.537950
LeftToeBase 13.224288 -0.000000 -0.000000
RightUpLeg 7.809045 -13.008889 -3.799358
RightLeg 5.021144 -0.000000 -0.000000
RightFoot -13.289461 -16.331619 8.091297
RightToeBase 6.126764 -0.000000 -0.000000
141
root 16.336884 35.115637 -13.566880 173.293411 1.643230 -180.172943
Spine 21.562298 4.509643 -0.096882
Head 22.722516 20.840156 17.270105
LeftShoulder -8.229519 6.252637 26.553699
LeftArm 26.132869 -38.125841 -53.578707
LeftForeArm -30.510491 -0.000000 16.122380
LeftHand 7.491311 -0.000000 23.372779
LeftHandThumb1 -26.253704 0.000000 33.147579
RightShoulder -24.173368 -5.322527 -24.151457
RightArm 30.538419 23.477756 46.867747
RightForeArm -10.212290 -0.000000 5.138997
RightHand -15.103500 0.000000 13.330024
RightHandThumb1 -24.326973 -0.000000 -32.862282
LeftUpLeg 3.013810 20.560856 8.931687
LeftLeg 15.968481 -0.000000 -0.000000
LeftFoot -16.810701 9.446811 -11.493613
LeftToeBase 12.851550 -0.000000 -0.000000
RightUpLeg 7.806747 -13.186681 -3.813681
RightLeg 5.025463 -0.000000 -0.000000
RightFoot -13.290835 -16.336127 8.086130
RightToeBase 6.059549 -0.000000 -0.000000
142
root 16.378618 35.122033 -13.544510 173.337352 1.536523 -180.264009
Spine 21.633727 4.579965 -0.147266
Head 22.695047 20.937525 17.201460
LeftShoulder -8.137849 6.090780 26.660990
LeftArm 26.482535 -38.152753 -53.916110
LeftForeArm -30.255247 -0.000000 15.899623
LeftHand 7.591708 -0.000000 23.142138
LeftHandThumb1 -26.253704 0.000000 33.147579
RightShoulder -24.183558 -5.298189 -24.073343
RightArm 30.602910 23.169765 46.743944
RightForeArm -10.058206 0.000000 5.106883
RightHand -15.034946 0.000000 12.905362
RightHandThumb1 -24.326973 -0.000000 -32.862282
LeftUpLeg 2.415477 20.924955 8.754025
LeftLeg 16.720179 -0.000000 -0.000000
LeftFoot -16.874695 10.061358 -11.459279
LeftToeBase 12.486745 -0.000000 -0.000000
RightUpLeg 7.711436 -13.228466 -3.825673
RightLeg 5.082041 -0.000000 -0.000000
RightFoot -13.306964 -16.381062 8.039857
RightToeBase 6.042456 -0.000000 -0.000000
143
root 16.416105 35.126989 -13.526906 173.376140 1.391313 -180.355369
Spine 21.700835 4.568714 -0.207724
Head 22.674570 21.049753 17.142664
LeftShoulder -8.062038 5.941467 26.780543
LeftArm 26.777800 -38.191663 -54.246053
LeftForeArm -30.038867 0.000000 15.685410
LeftHand 7.670123 0.000000 22.903586
LeftHandThumb1 -26.253704 0.000000 33.147579
RightShoulder -24.135586 -5.380292 -23.991952
RightArm 30.712110 23.049493 46.771904
RightForeArm -10.167139 -0.000000 5.264899
RightHand -15.021350 -0.000000 12.927394
RightHandThumb1 -24.326973 -0.000000 -32.862282
LeftUpLeg 1.837692 21.186819 8.544199
LeftLeg 17.435161 -0.000000 -0.000000
LeftFoot -16.955693 10.694256 -11.638400
LeftToeBase 11.854303 -0.000000 -0.000000
RightUpLeg 7.649113 -13.342729 -3.856514
RightLeg 5.106714 -0.000000 -0.000000
RightFoot -13.325576 -16.420526 8.031104
RightToeBase 6.041786 -0.000000 -0.000000
144
root 16.454604 35.131884 -13.517476 173.376891 1.169762 -180.423668
Spine 21.793666 4.471568 -0.243311
Head 22.655646 21.132847 17.029145
LeftShoulder -7.961635 5.725626 26.891495
LeftArm 26.870896 -38.050676 -54.360267
LeftForeArm -29.977673 0.000000 15.490056
LeftHand 7.712670 -0.000000 22.844407
LeftHandThumb1 -26.253704 0.000000 33.147579
RightShoulder -24.040915 -5.261986 -23.973905
RightArm 30.550485 22.654041 46.569076
RightForeArm -10.141388 -0.000000 5.491129
RightHand -15.128675 -0.000000 12.560871
RightHandThumb1 -24.326973 -0.000000 -32.862282
LeftUpLeg 1.302695 21.446398 8.358129
LeftLeg 18.126547 -0.000000 -0.000000
LeftFoot -17.133577 11.343621 -11.698228
LeftToeBase 11.609596 -0.000000 -0.000000
RightUpLeg 7.669428 -13.576125 -3.895291
RightLeg 5.099413 -0.000000 -0.000000
RightFoot -13.329825 -16.403521 8.004527
RightToeBase 6.030890 -0.000000 -0.000000
145
root 16.489861 35.134890 -13.512625 173.358772 0.979925 -180.471931
Spine 21.924787 4.377468 -0.221487
Head 22.568563 21.230141 16.852198
LeftShoulder -7.896250 5.645192 26.933335
LeftArm 27.073243 -37.915213 -54.488374
LeftForeArm -29.960543 0.000000 15.304408
LeftHand 7.679488 0.000000 22.930309
LeftHandThumb1 -26.253704 0.000000 33.147579
RightShoulder -23.998154 -5.397431 -23.936873
RightArm 30.664023 22.564782 46.659781
RightForeArm -10.396178 0.000000 5.843850
RightHand -15.226145 -0.000000 12.504227
RightHandThumb1 -24.326973 -0.000000 -32.862282
LeftUpLeg 0.796640 21.816774 8.199754
LeftLeg 18.827667 -0.000000 -0.000000
LeftFoot -17.249821 11.983071 -11.826673
LeftToeBase 10.824112 -0.000000 -0.000000
RightUpLeg 7.713871 -13.799986 -3.925432
RightLeg 5.093136 -0.000000 -0.000000
RightFoot -13.338487 -16.372926 7.984572
RightToeBase 5.971557 -0.000000 -0.000000
146
root 16.523011 35.137200 -13.493114 173.398138 0.899168 -180.529817
Spine 22.017064 4.387561 -0.232784
Head 22.503847 21.385978 16.782803
LeftShoulder -7.821140 5.451194 27.044256
LeftArm 27.144089 -37.810287 -54.629632
LeftForeArm -29.853807 -0.000000 15.183496
LeftHand 7.667952 -0.000000 23.202448
LeftHandThumb1 -26.253704 0.000000 33.147579
RightShoulder -23.932411 -5.533913 -23.811512
RightArm 30.826899 22.355195 46.613080
RightForeArm -10.401410 -0.000000 6.011430
RightHand -15.260770 0.000000 12.159097
RightHandThumb1 -24.326973 -0.000000 -32.862282
LeftUpLeg 0.216671 22.381704 8.013540
LeftLeg 19.539245 -0.000000 -0.000000
LeftFoot -17.469097 12.579216 -12.073976
LeftToeBase 10.176334 -0.000000 -0.000000
RightUpLeg 7.621837 -13.900480 -3.923506
RightLeg 5.149051 -0.000000 -0.000000
RightFoot -13.360902 -16.414058 7.887863
RightToeBase 6.024200 -0.000000 -0.000000
